<?xml version="1.0" standalone="no"?>
<!DOCTYPE svg PUBLIC "-//W3C//DTD SVG 20010904//EN"
 "http://www.w3.org/TR/2001/REC-SVG-20010904/DTD/svg10.dtd">
<svg version="1.0" xmlns="http://www.w3.org/2000/svg"
 width="518.000000pt" height="518.000000pt" viewBox="0 0 518.000000 518.000000"
 preserveAspectRatio="xMidYMid meet">
<metadata>
Created by potrace 1.11, written by Peter Selinger 2001-2013
</metadata>
<g transform="translate(0.000000,518.000000) scale(0.100000,-0.100000)"
fill="#000000" stroke="none">
<path d="M680 5170 c-181 -13 -333 -81 -456 -204 -85 -85 -142 -179 -186 -306
l-33 -95 0 -1975 0 -1975 33 -95 c45 -129 101 -221 186 -305 87 -85 170 -135
296 -178 l95 -32 1975 0 1975 0 95 33 c129 45 221 101 305 186 85 87 135 170
178 296 l32 95 0 1975 0 1975 -33 95 c-77 222 -216 376 -415 458 -157 66 -36
62 -2084 60 -1022 0 -1905 -4 -1963 -8z m742 -1502 c3 -510 3 -506 80 -572 53
-46 109 -60 216 -54 118 7 162 32 208 118 18 32 19 71 24 495 l5 460 140 0
140 0 0 -450 c-1 -490 -3 -512 -60 -626 -52 -103 -179 -190 -320 -220 -85 -18
-274 -16 -359 5 -139 33 -249 114 -300 219 -51 104 -56 155 -56 635 l0 442
140 0 139 0 3 -452z m1836 428 c161 -41 238 -145 230 -311 -2 -52 -10 -94 -23
-119 -20 -42 -88 -112 -117 -122 -28 -8 -22 -17 25 -37 55 -22 119 -85 149
-145 19 -40 23 -62 23 -157 0 -96 -3 -116 -24 -159 -31 -62 -95 -125 -164
-160 -98 -49 -160 -56 -534 -56 l-343 0 0 646 0 646 358 -5 c280 -4 370 -8
420 -21z m770 -623 l2 -643 -140 0 -140 0 0 645 0 646 138 -3 137 -3 3 -642z
m-2773 -1168 c143 -36 265 -170 284 -312 26 -187 -50 -327 -253 -464 -155
-106 -272 -197 -300 -234 l-27 -35 295 0 296 0 0 -110 0 -110 -460 0 -460 0 0
43 c0 109 63 241 160 337 36 36 119 102 185 148 205 141 231 162 262 205 42
58 57 110 50 170 -12 97 -82 158 -181 158 -112 0 -173 -65 -197 -210 l-12 -71
-120 0 -120 0 6 78 c16 228 173 402 380 421 71 6 153 1 212 -14z m975 -1 c141
-38 237 -150 292 -341 21 -70 23 -99 23 -288 0 -236 -10 -297 -70 -420 -43
-89 -111 -159 -195 -199 -62 -30 -71 -31 -190 -31 -117 0 -129 2 -187 29 -41
18 -81 48 -116 85 -100 105 -145 243 -154 471 -17 434 119 678 394 709 72 8
131 4 203 -15z m1025 1 c93 -24 202 -108 247 -192 57 -105 58 -258 2 -368 -35
-69 -123 -155 -223 -222 -129 -85 -222 -156 -275 -209 l-48 -49 296 -3 296 -2
0 -110 0 -110 -460 0 -460 0 0 33 c0 56 29 158 63 220 44 83 130 166 281 272
213 149 249 178 280 228 63 103 41 230 -50 283 -32 19 -57 25 -99 25 -105 0
-165 -61 -192 -199 l-16 -82 -119 0 -118 0 0 45 c0 151 86 318 204 392 100 64
253 82 391 48z m985 -5 c179 -53 290 -236 308 -507 26 -396 -62 -640 -266
-736 -64 -30 -73 -32 -187 -32 -102 0 -129 4 -177 23 -171 69 -271 262 -285
552 -6 134 8 295 33 382 82 276 302 397 574 318z"/>
<path d="M2760 3751 l0 -151 176 0 c160 0 180 2 213 21 47 26 61 48 68 108 8
68 -16 114 -74 142 -40 19 -67 23 -214 27 l-169 5 0 -152z"/>
<path d="M2760 3225 l0 -177 198 4 c175 3 201 5 231 23 60 35 76 67 76 150 0
83 -16 115 -76 150 -30 18 -56 20 -231 23 l-198 4 0 -177z"/>
<path d="M2003 2091 c-81 -50 -115 -173 -116 -412 0 -188 12 -271 52 -350 37
-72 77 -99 150 -99 70 0 110 23 145 82 47 80 60 156 60 348 0 256 -29 369
-111 425 -48 32 -132 35 -180 6z"/>
<path d="M4002 2089 c-81 -52 -112 -169 -112 -417 0 -189 14 -275 57 -354 36
-66 72 -88 144 -88 77 0 115 27 156 110 38 76 53 169 53 325 0 310 -64 445
-210 445 -39 0 -65 -7 -88 -21z"/>
</g>
</svg>
